<?xml version="1.0" encoding="UTF-8"?>
<svg id="Layer_1" xmlns="http://www.w3.org/2000/svg" version="1.1" viewBox="0 0 100 100">
  <!-- Generator: Adobe Illustrator 30.0.0, SVG Export Plug-In . SVG Version: 2.1.1 Build 123)  -->
  <defs>
    <style>
      .st0 {
        fill: none;
        stroke: #242729;
        stroke-width: 2px;
      }
    </style>
  </defs>
  <g id="_x33_.1.3.0---Working-With-Your-Dermatologist">
    <g id="LG_3.1.3.0_Working-With-Your-Derm-Copy-2">
      <g id="Group">
        <g id="tip3">
          <g id="_x31_">
            <g id="Advocate">
              <path id="Stroke-4" class="st0" d="M56.1,30.5l10.2,25.2c.5,1.2-.6,2.4-1.8,2.1-5.6-1.2-18.3-3-31,1.7-1.6.6-3.4.2-4.7-.9h0c-1-.9-1.6-2.1-1.9-3.4-.5-2.1.6-4.2,2.5-5.2,3.4-1.7,9.1-5.9,24.2-20.1.8-.8,2.2-.5,2.6.6Z"/>
              <path id="Stroke-6" class="st0" d="M33.4,48.3s4.8,1.9,5.4,9.4"/>
              <path id="Stroke-8" class="st0" d="M36,59.1l3.7,10.8c.2.5.8.8,1.3.5l4-2.1c.5-.2.6-.8.4-1.3l-5.7-9.3"/>
              <path id="Stroke-10" class="st0" d="M59.6,39.6c.3,0,3.2.9,4.3,3.7,1.2,2.9-.6,5.4-.7,5.7"/>
              <path id="Stroke-12" class="st0" d="M62.3,35.5c.7.3,3.9,1.8,5.4,5.5,1.4,3.5.2,6.5,0,7.2"/>
              <path id="Stroke-14" class="st0" d="M63.6,31.5c.9.5,5.7,2.9,7.8,8.8,2,5.5.3,10.3-.1,11.4"/>
            </g>
          </g>
        </g>
      </g>
    </g>
  </g>
</svg>